<mxfile host="app.diagrams.net" modified="2023-09-29T04:30:39.615Z" agent="Mozilla/5.0 (Windows NT 10.0; Win64; x64) AppleWebKit/537.36 (KHTML, like Gecko) Chrome/117.0.0.0 Safari/537.36 Edg/117.0.2045.43" etag="G-Y9I-7lhHz8sU3nIabd" version="21.8.2" type="device">
  <diagram id="t4ox87SOz31lbuG_cDie" name="Page-1">
    <mxGraphModel dx="985" dy="561" grid="1" gridSize="10" guides="1" tooltips="1" connect="1" arrows="1" fold="1" page="1" pageScale="1" pageWidth="850" pageHeight="1100" math="1" shadow="0">
      <root>
        <mxCell id="0" />
        <mxCell id="1" parent="0" />
        <mxCell id="T7CUuTnoHQPzA2QzaxN6-1" value="" style="ellipse;whiteSpace=wrap;html=1;fillColor=#CECCF8;aspect=fixed;" parent="1" vertex="1">
          <mxGeometry x="88.49" y="203.85" width="692" height="692" as="geometry" />
        </mxCell>
        <mxCell id="T7CUuTnoHQPzA2QzaxN6-8" value="" style="endArrow=none;dashed=1;html=1;rounded=0;entryX=0.5;entryY=0;entryDx=0;entryDy=0;entryPerimeter=0;exitX=0.5;exitY=1;exitDx=0;exitDy=0;exitPerimeter=0;" parent="1" source="T7CUuTnoHQPzA2QzaxN6-4" target="T7CUuTnoHQPzA2QzaxN6-4" edge="1">
          <mxGeometry width="50" height="50" relative="1" as="geometry">
            <mxPoint x="404.72" y="589.95" as="sourcePoint" />
            <mxPoint x="454.72" y="539.95" as="targetPoint" />
          </mxGeometry>
        </mxCell>
        <mxCell id="T7CUuTnoHQPzA2QzaxN6-2" value="" style="ellipse;whiteSpace=wrap;html=1;fillColor=#9E9CF8;rotation=45;" parent="1" vertex="1">
          <mxGeometry x="226.13" y="324.40000000000003" width="416.74" height="452.77" as="geometry" />
        </mxCell>
        <mxCell id="T7CUuTnoHQPzA2QzaxN6-3" value="" style="ellipse;whiteSpace=wrap;html=1;fillColor=#5E5CF8;rotation=45;" parent="1" vertex="1">
          <mxGeometry x="338.6" y="445.51" width="191.79" height="208.68" as="geometry" />
        </mxCell>
        <mxCell id="T7CUuTnoHQPzA2QzaxN6-5" value="" style="ellipse;whiteSpace=wrap;html=1;fillColor=#F81E1C;strokeColor=#b85450;rotation=46;" parent="1" vertex="1">
          <mxGeometry x="398.63" y="494.95" width="71.73" height="110.11" as="geometry" />
        </mxCell>
        <mxCell id="T7CUuTnoHQPzA2QzaxN6-4" value="T" style="shape=cylinder3;whiteSpace=wrap;html=1;boundedLbl=1;backgroundOutline=1;size=9.581341242801386;rotation=45;fillColor=#fff2cc;strokeColor=#d6b656;labelPosition=center;verticalLabelPosition=middle;align=center;verticalAlign=middle;" parent="1" vertex="1">
          <mxGeometry x="409.1700000000001" y="505.78" width="50.64" height="90" as="geometry" />
        </mxCell>
        <mxCell id="H0J4SKHPezlmXjr6oVWq-2" value="&lt;font style=&quot;font-size: 19px;&quot;&gt;MEE&lt;/font&gt;" style="text;html=1;align=center;verticalAlign=middle;resizable=0;points=[];autosize=1;strokeColor=none;fillColor=none;rotation=-45;" vertex="1" parent="1">
          <mxGeometry x="395" y="490" width="60" height="40" as="geometry" />
        </mxCell>
        <mxCell id="H0J4SKHPezlmXjr6oVWq-4" value="" style="html=1;whiteSpace=wrap;shape=isoCube2;backgroundOutline=1;isoAngle=9.407894736842124;" vertex="1" parent="1">
          <mxGeometry x="240" y="250" width="20" height="20" as="geometry" />
        </mxCell>
        <mxCell id="H0J4SKHPezlmXjr6oVWq-8" value="" style="html=1;whiteSpace=wrap;shape=isoCube2;backgroundOutline=1;isoAngle=9.407894736842124;" vertex="1" parent="1">
          <mxGeometry x="750" y="670" width="20" height="20" as="geometry" />
        </mxCell>
        <mxCell id="H0J4SKHPezlmXjr6oVWq-9" value="" style="html=1;whiteSpace=wrap;shape=isoCube2;backgroundOutline=1;isoAngle=9.407894736842124;" vertex="1" parent="1">
          <mxGeometry x="710" y="350" width="20" height="20" as="geometry" />
        </mxCell>
        <mxCell id="H0J4SKHPezlmXjr6oVWq-10" value="" style="html=1;whiteSpace=wrap;shape=isoCube2;backgroundOutline=1;isoAngle=9.407894736842124;" vertex="1" parent="1">
          <mxGeometry x="379.72" y="530" width="20" height="20" as="geometry" />
        </mxCell>
        <mxCell id="H0J4SKHPezlmXjr6oVWq-11" value="" style="html=1;whiteSpace=wrap;shape=isoCube2;backgroundOutline=1;isoAngle=9.407894736842124;" vertex="1" parent="1">
          <mxGeometry x="439.81" y="575.78" width="20" height="20" as="geometry" />
        </mxCell>
        <mxCell id="H0J4SKHPezlmXjr6oVWq-12" value="" style="html=1;whiteSpace=wrap;shape=isoCube2;backgroundOutline=1;isoAngle=9.407894736842124;" vertex="1" parent="1">
          <mxGeometry x="459.81" y="494.95" width="20" height="20" as="geometry" />
        </mxCell>
        <mxCell id="H0J4SKHPezlmXjr6oVWq-13" value="" style="curved=1;endArrow=classic;html=1;rounded=0;exitX=0.5;exitY=1;exitDx=0;exitDy=0;exitPerimeter=0;entryX=0;entryY=0;entryDx=0;entryDy=2.977282136581643;entryPerimeter=0;" edge="1" parent="1" source="H0J4SKHPezlmXjr6oVWq-4" target="H0J4SKHPezlmXjr6oVWq-10">
          <mxGeometry width="50" height="50" relative="1" as="geometry">
            <mxPoint x="390" y="420" as="sourcePoint" />
            <mxPoint x="440" y="370" as="targetPoint" />
            <Array as="points">
              <mxPoint x="340" y="330" />
              <mxPoint x="300" y="490" />
            </Array>
          </mxGeometry>
        </mxCell>
        <mxCell id="H0J4SKHPezlmXjr6oVWq-14" value="" style="curved=1;endArrow=classic;html=1;rounded=0;exitX=0.5;exitY=1;exitDx=0;exitDy=0;exitPerimeter=0;entryX=0;entryY=0;entryDx=20;entryDy=2.977282136581643;entryPerimeter=0;" edge="1" parent="1" source="H0J4SKHPezlmXjr6oVWq-9" target="H0J4SKHPezlmXjr6oVWq-12">
          <mxGeometry width="50" height="50" relative="1" as="geometry">
            <mxPoint x="260" y="280" as="sourcePoint" />
            <mxPoint x="390" y="543" as="targetPoint" />
            <Array as="points">
              <mxPoint x="650" y="450" />
              <mxPoint x="530" y="450" />
            </Array>
          </mxGeometry>
        </mxCell>
        <mxCell id="H0J4SKHPezlmXjr6oVWq-15" value="" style="curved=1;endArrow=classic;html=1;rounded=0;exitX=0;exitY=0;exitDx=0;exitDy=2.977282136581643;exitPerimeter=0;entryX=0.5;entryY=1;entryDx=0;entryDy=0;entryPerimeter=0;" edge="1" parent="1" source="H0J4SKHPezlmXjr6oVWq-8" target="H0J4SKHPezlmXjr6oVWq-11">
          <mxGeometry width="50" height="50" relative="1" as="geometry">
            <mxPoint x="699.81" y="530" as="sourcePoint" />
            <mxPoint x="459.81" y="658" as="targetPoint" />
            <Array as="points">
              <mxPoint x="660" y="590" />
              <mxPoint x="460" y="650" />
            </Array>
          </mxGeometry>
        </mxCell>
      </root>
    </mxGraphModel>
  </diagram>
</mxfile>
